<svg id="Layer_1" data-name="Layer 1" xmlns="http://www.w3.org/2000/svg" xmlns:xlink="http://www.w3.org/1999/xlink" viewBox="0 0 299.9 44.89"><defs><style>.cls-1{fill:none;}.cls-2{fill:#fff;}.cls-3,.cls-5{fill:#e6bc45;}.cls-3{fill-rule:evenodd;}.cls-4{clip-path:url(#clip-path);}</style><clipPath id="clip-path" transform="translate(-0.1 -1.45)"><path class="cls-1" d="M17.48,38a5.19,5.19,0,0,0,2.65-2.85,5.15,5.15,0,0,0,1.18,1.82,5.36,5.36,0,0,0,1.46,1l-2.64,2.64ZM8.59,33h0v1a1,1,0,0,1-1,1,.94.94,0,0,1-.68-.29h0A1,1,0,0,1,6.66,34a1,1,0,0,1,1-1ZM32,34.63a1,1,0,0,1-.28-.68V33h1a1,1,0,0,1,.68.28,1,1,0,0,1,.28.68,1,1,0,0,1-1.65.68m-15.72.46a3.88,3.88,0,0,1,1.12-2.74l0,0a3.88,3.88,0,0,1,2.41-1.12v2.06a4.47,4.47,0,0,1-1.32,3.18,4.42,4.42,0,0,1-1.46,1,3.93,3.93,0,0,1-.77-2.34m11.05-4.93A7.5,7.5,0,0,1,26,28a7.29,7.29,0,0,1-.28-.94,7.79,7.79,0,0,1,3.13,1.56A5.6,5.6,0,0,1,31,32.28a5.63,5.63,0,0,1-3.68-2.12M14.54,27h0a6,6,0,0,1-.29.94A7.47,7.47,0,0,1,13,30.16a5.65,5.65,0,0,1-3.69,2.12,5.65,5.65,0,0,1,2.12-3.69,7.7,7.7,0,0,1,2.19-1.27,7.84,7.84,0,0,1,.94-.29Zm.36,1.19a7.73,7.73,0,0,0,.36-1.31,5.29,5.29,0,0,1,.79,0,4.9,4.9,0,0,1,3.73,1.68v2a4.62,4.62,0,0,0-1.41.34,4.51,4.51,0,0,0-1.49,1l0,0a4.59,4.59,0,0,0-.54,5.78,4.42,4.42,0,0,1-1,.12H12a6.7,6.7,0,0,1-.49-3,6,6,0,0,1,1.05-3A5.4,5.4,0,0,1,14.79,30a4.35,4.35,0,0,1,2-.35.34.34,0,0,0,0-.68,5,5,0,0,0-2.32.4l-.19.09a8.66,8.66,0,0,0,.57-1.19m6.89,8.23a4.52,4.52,0,0,1-1.32-3.18V28.55a4.94,4.94,0,0,1,3.74-1.68,5.1,5.1,0,0,1,.78,0,8.83,8.83,0,0,0,.37,1.31,10,10,0,0,0,.56,1.19l-.18-.09a5,5,0,0,0-2.33-.4.33.33,0,0,0-.31.36.34.34,0,0,0,.36.32,4.28,4.28,0,0,1,2,.35A5,5,0,0,1,27,31l0,.05a5.76,5.76,0,0,1,.64.75,6.1,6.1,0,0,1,1,3,6.84,6.84,0,0,1-.49,3H25a4.4,4.4,0,0,1-1-.12,4.61,4.61,0,0,0-.57-5.8,3.93,3.93,0,0,0-.75-.61,4.44,4.44,0,0,0-.87-.44l-.24-.08-.24-.07a.34.34,0,1,0-.17.66l.21.06.2.07a4.65,4.65,0,0,1,.74.37,4.42,4.42,0,0,1,.64.52,3.92,3.92,0,0,1,.37,5.1,4.56,4.56,0,0,1-1.47-1m5.11-9.77a7.27,7.27,0,0,0-1.31-.37,6.79,6.79,0,0,1,0-.78,5,5,0,0,1,1.69-3.74h2a4.75,4.75,0,0,0,.34,1.42,4.48,4.48,0,0,0,1,1.48l0,0A4.58,4.58,0,0,0,33.78,26a4.65,4.65,0,0,0,2.56-.77,4.34,4.34,0,0,1,.12,1v3.27a6.6,6.6,0,0,1-3,.49,5.9,5.9,0,0,1-3-1.05,5.26,5.26,0,0,1-1.85-2.22,4.29,4.29,0,0,1-.36-2,.34.34,0,0,0-.31-.37.35.35,0,0,0-.37.32A4.86,4.86,0,0,0,28,27.05c0,.06,0,.13.08.19a7.59,7.59,0,0,0-1.19-.56M31,24.23l0,0a3.88,3.88,0,0,1-.85-1.27,4.2,4.2,0,0,1-.28-1.15H32a4.45,4.45,0,0,1,3.17,1.32,4.52,4.52,0,0,1,1,1.46A3.92,3.92,0,0,1,31,24.23M10.36,21.79a3.59,3.59,0,0,1-.28,1.15,3.86,3.86,0,0,1-.84,1.26l0,0a3.94,3.94,0,0,1-5.08.34,4.69,4.69,0,0,1,1-1.46A4.47,4.47,0,0,1,8.3,21.79h2.06M9.7,24.71l0,0a4.73,4.73,0,0,0,1-1.49,4.33,4.33,0,0,0,.33-1.41h2a4.9,4.9,0,0,1,1.68,3.74,5.1,5.1,0,0,1,0,.78,7.4,7.4,0,0,0-1.3.37,7.69,7.69,0,0,0-1.2.56l.09-.19a5.11,5.11,0,0,0,.41-2.32.35.35,0,0,0-.69.05,4.28,4.28,0,0,1-.35,2A5.32,5.32,0,0,1,9.77,29a5.9,5.9,0,0,1-3,1.05,6.58,6.58,0,0,1-3-.49V26.29a4.34,4.34,0,0,1,.12-1A4.65,4.65,0,0,0,6.48,26,4.56,4.56,0,0,0,9.7,24.71M1,21.44,3.6,18.8a5.19,5.19,0,0,0,1,1.46,5.11,5.11,0,0,0,1.81,1.18A5.28,5.28,0,0,0,3.6,24.09Zm34.66,1.18a5.35,5.35,0,0,0-1.81-1.18,5.24,5.24,0,0,0,2.84-2.64l2.65,2.64-2.65,2.65a5.41,5.41,0,0,0-1-1.47M16.05,16.71A5.63,5.63,0,0,0,20.13,15a5.59,5.59,0,0,0,4.07,1.74q.35,0,.69,0h0c0,.23,0,.46,0,.69a5.58,5.58,0,0,0,1.73,4.07,5.62,5.62,0,0,0-1.73,4.08c0,.23,0,.46,0,.69q-.34,0-.69,0a5.55,5.55,0,0,0-4.07,1.74,5.58,5.58,0,0,0-4.07-1.74c-.24,0-.47,0-.7,0h0q0-.34,0-.69a5.62,5.62,0,0,0-1.73-4.08,5.58,5.58,0,0,0,1.73-4.07q0-.35,0-.69c.2,0,.41,0,.61,0h.08M28,18.48a.34.34,0,0,0,.31-.37,4.42,4.42,0,0,1,.33-1.94,5.16,5.16,0,0,1,1.21-1.74A5.89,5.89,0,0,1,33,12.89a6.66,6.66,0,0,1,3.46.43V16.6a4.34,4.34,0,0,1-.12,1,4.65,4.65,0,0,0-2.56-.77,4.59,4.59,0,0,0-3.25,1.34,4.09,4.09,0,0,0-.7.91,4.54,4.54,0,0,0-.46,1.06.34.34,0,1,0,.66.18,4,4,0,0,1,1-1.67,3.91,3.91,0,0,1,2.76-1.13,3.85,3.85,0,0,1,2.33.77A4.52,4.52,0,0,1,32,21.1H27.24a5,5,0,0,1-1.69-3.74,6.79,6.79,0,0,1,0-.78,7.27,7.27,0,0,0,1.31-.37,7.59,7.59,0,0,0,1.19-.56c0,.08-.07.17-.11.25a5,5,0,0,0-.38,2.26.34.34,0,0,0,.34.32h0M3.8,16.6V13.32a6.7,6.7,0,0,1,3-.48,5.9,5.9,0,0,1,3,1.05,5.78,5.78,0,0,1,.76.63l0,.05a5,5,0,0,1,1,1.54,4.28,4.28,0,0,1,.35,2,.35.35,0,0,0,.69.05,5.11,5.11,0,0,0-.41-2.32l-.09-.19a7.69,7.69,0,0,0,1.2.56,7.4,7.4,0,0,0,1.3.37,5.1,5.1,0,0,1,0,.78A4.9,4.9,0,0,1,13,21.1H8.3a4.52,4.52,0,0,1-3.18-1.32,4.69,4.69,0,0,1-1-1.46,3.88,3.88,0,0,1,2.34-.77,3.92,3.92,0,0,1,2.76,1.13,4,4,0,0,1,.52.65,3.58,3.58,0,0,1,.37.73l.07.21.06.2a.34.34,0,1,0,.66-.17,2.17,2.17,0,0,0-.07-.24,1.35,1.35,0,0,0-.08-.24,5,5,0,0,0-.43-.87,5.41,5.41,0,0,0-.61-.75,4.6,4.6,0,0,0-3.25-1.34,4.65,4.65,0,0,0-2.56.77,4.34,4.34,0,0,1-.12-1m9.8-1a7.5,7.5,0,0,1-2.19-1.28,5.61,5.61,0,0,1-2.12-3.68A5.68,5.68,0,0,1,13,12.72a7.74,7.74,0,0,1,1.27,2.19,6.76,6.76,0,0,1,.29.94,6.33,6.33,0,0,1-.94-.28m17.37-5h0a5.55,5.55,0,0,1-2.11,3.68,7.63,7.63,0,0,1-2.19,1.28,6.33,6.33,0,0,1-.94.28h0a8.37,8.37,0,0,1,.28-.94,7.77,7.77,0,0,1,1.28-2.19A5.66,5.66,0,0,1,31,10.61Zm-24-1A1,1,0,0,1,7.62,8a1,1,0,0,1,1,1v1h-1a1,1,0,0,1-.68-.28m24.73-.68a1,1,0,0,1,1.65-.68h0a1,1,0,0,1,.28.68,1,1,0,0,1-1,1h-1Zm-13,2.46a3.86,3.86,0,0,1-1.26-.84l0,0A3.88,3.88,0,0,1,16.23,7.8,3.93,3.93,0,0,1,17,5.46a4.52,4.52,0,0,1,2.78,4.16v2.06a3.87,3.87,0,0,1-1.15-.28m2.78.8a4.62,4.62,0,0,0,1.05-.45,4.46,4.46,0,0,0,.91-.71,4.61,4.61,0,0,0,.57-5.8,4.4,4.4,0,0,1,1-.12h3.28a6.62,6.62,0,0,1,.43,3.45,5.91,5.91,0,0,1-1.53,3.18A5.26,5.26,0,0,1,25.41,13a4.21,4.21,0,0,1-1.95.33.34.34,0,0,0-.05.68,4.84,4.84,0,0,0,2.26-.38l.25-.11a10,10,0,0,0-.56,1.19A8.83,8.83,0,0,0,25,16a6.79,6.79,0,0,1-.78,0,4.94,4.94,0,0,1-3.74-1.68V9.62a4.5,4.5,0,0,1,1.32-3.18,4.63,4.63,0,0,1,1.46-1,3.91,3.91,0,0,1-1.13,5.7,3.92,3.92,0,0,1-.9.38A.35.35,0,0,0,21,12a.32.32,0,0,0,.32.24h.1m-6.62.74a5.35,5.35,0,0,1-2.22-1.86,6,6,0,0,1-1.05-3,6.7,6.7,0,0,1,.49-3h3.27a4.42,4.42,0,0,1,1,.12A4.59,4.59,0,0,0,16.86,11l0,0a4.51,4.51,0,0,0,1.49,1,4.62,4.62,0,0,0,1.41.34v2A4.9,4.9,0,0,1,16.05,16a7.09,7.09,0,0,1-.79,0,7.73,7.73,0,0,0-.36-1.31,8.66,8.66,0,0,0-.57-1.19l.19.08a4.86,4.86,0,0,0,2.32.41.34.34,0,0,0,.32-.36.34.34,0,0,0-.36-.32h-.3a4.44,4.44,0,0,1-1.71-.36M19,6a5.26,5.26,0,0,0-1.47-1l2.65-2.65,2.64,2.65a5.36,5.36,0,0,0-1.46,1,5.2,5.2,0,0,0-1.18,1.81A5.35,5.35,0,0,0,19,6m1.18-4.5h-.24l-3,3-.1.1a5.23,5.23,0,0,0-1.5-.22h-3.5a.35.35,0,0,0-.33.24,7.47,7.47,0,0,0-.61,3.48,6.64,6.64,0,0,0,.66,2.45,5.62,5.62,0,0,0-2.23-.68v-1a1.64,1.64,0,0,0-.48-1.17,1.69,1.69,0,0,0-1.17-.49,1.67,1.67,0,0,0-1.17.49A1.64,1.64,0,0,0,6,8.94H6a1.66,1.66,0,0,0,1.65,1.65h1a5.64,5.64,0,0,0,.69,2.22,6.84,6.84,0,0,0-2.46-.66,7.66,7.66,0,0,0-3.48.62.34.34,0,0,0-.24.33v3.5a5,5,0,0,0,.23,1.5.94.94,0,0,0-.1.1l-3,3a.36.36,0,0,0,0,.49l3,3a.94.94,0,0,0,.1.1,5,5,0,0,0-.23,1.5v3.5a.35.35,0,0,0,.24.33,7.51,7.51,0,0,0,3.48.61,6.63,6.63,0,0,0,2.46-.65A5.59,5.59,0,0,0,8.6,32.3h-1a1.66,1.66,0,0,0-1.17.48A1.68,1.68,0,0,0,6,34a1.64,1.64,0,0,0,.48,1.17h0a1.66,1.66,0,0,0,1.17.48A1.64,1.64,0,0,0,9.27,34V33a5.48,5.48,0,0,0,2.23-.69,6.64,6.64,0,0,0-.66,2.46,7.47,7.47,0,0,0,.61,3.48.35.35,0,0,0,.33.24h3.5a5.23,5.23,0,0,0,1.5-.22.47.47,0,0,1,.1.1l3,3a.34.34,0,0,0,.48,0l3-3,.1-.1a5.34,5.34,0,0,0,1.5.22h3.51a.33.33,0,0,0,.32-.24,7.36,7.36,0,0,0,.62-3.48,6.84,6.84,0,0,0-.66-2.46A5.48,5.48,0,0,0,31,33v1a1.66,1.66,0,0,0,1.65,1.65h0a1.65,1.65,0,0,0,0-3.3h-1A5.42,5.42,0,0,0,31,30.08a6.63,6.63,0,0,0,2.46.65,7.51,7.51,0,0,0,3.48-.61.34.34,0,0,0,.23-.33v-3.5a5,5,0,0,0-.22-1.5.94.94,0,0,0,.1-.1l3-3h0l-3-3a.94.94,0,0,0-.1-.1,5,5,0,0,0,.22-1.5V13.1a.34.34,0,0,0-.23-.33,7.41,7.41,0,0,0-4-.56,6.79,6.79,0,0,0-1.93.6,5.47,5.47,0,0,0,.68-2.22h1a1.64,1.64,0,0,0,1.16-.49,1.62,1.62,0,0,0,.49-1.16,1.65,1.65,0,0,0-.49-1.17h0a1.65,1.65,0,0,0-1.17-.49,1.68,1.68,0,0,0-1.16.49A1.65,1.65,0,0,0,31,8.94v1a5.48,5.48,0,0,0-2.22.69,6.64,6.64,0,0,0,.6-1.94,7.29,7.29,0,0,0-.56-4,.33.33,0,0,0-.32-.24H25a5.34,5.34,0,0,0-1.5.22l-.1-.1-3-3h-.24Z"/></clipPath></defs><path class="cls-2" d="M73.91,14a6.5,6.5,0,0,0-.43-2.59,2,2,0,0,0-2-1h-.35V9.37h9.46c1.09,0,2.25.06,3.46.18a11.43,11.43,0,0,1,3.35.83,6.32,6.32,0,0,1,2.52,1.89,5.23,5.23,0,0,1,1,3.36,4.34,4.34,0,0,1-.3,1.54,4.82,4.82,0,0,1-.91,1.48,6.55,6.55,0,0,1-1.52,1.25,7.86,7.86,0,0,1-2.14.88,9.07,9.07,0,0,1,2.85.7,5.51,5.51,0,0,1,1.83,1.27,4.36,4.36,0,0,1,1,1.7,6.82,6.82,0,0,1,.28,2A5.57,5.57,0,0,1,91,29.75a6.21,6.21,0,0,1-2.38,2,10.88,10.88,0,0,1-3.33,1,27.31,27.31,0,0,1-3.71.25H73.91Zm6.66-3.22c-.28,0-.55,0-.81,0a3.62,3.62,0,0,0-.66.11l-.63.1v9h2.62a5.7,5.7,0,0,0,3.52-1A4.2,4.2,0,0,0,86,15.45a4.6,4.6,0,0,0-.48-2.21,3.89,3.89,0,0,0-1.22-1.43A4.75,4.75,0,0,0,82.56,11a8.34,8.34,0,0,0-2-.24m.52,20.74a6.73,6.73,0,0,0,4.43-1.28,4.52,4.52,0,0,0,1.53-3.65q0-4.93-6-4.94H78.47v9.51a3.41,3.41,0,0,0,.7.18,7.13,7.13,0,0,0,1.75.18Z" transform="translate(-0.1 -1.45)"/><path class="cls-2" d="M113.77,17.08a9,9,0,0,0-2.31-4.73A6.07,6.07,0,0,0,107,10.71a7.84,7.84,0,0,0-2.85.51A5.55,5.55,0,0,0,101.85,13a9.16,9.16,0,0,0-1.56,3.29,20,20,0,0,0-.56,5.13,17.17,17.17,0,0,0,.4,3.75,9.84,9.84,0,0,0,1.27,3.2,6.75,6.75,0,0,0,2.26,2.22,6.45,6.45,0,0,0,3.37.83,7.77,7.77,0,0,0,4.25-1.24,8.78,8.78,0,0,0,3.15-3.6l1.16.91a10.52,10.52,0,0,1-3.81,4.13A11.16,11.16,0,0,1,106,32.91a11.82,11.82,0,0,1-4.67-.88,9.83,9.83,0,0,1-3.43-2.44,10.7,10.7,0,0,1-2.13-3.67,13.64,13.64,0,0,1-.73-4.54,13.66,13.66,0,0,1,.83-4.79,12.09,12.09,0,0,1,2.29-3.86,10.73,10.73,0,0,1,3.47-2.6,10.12,10.12,0,0,1,4.37-1,12.81,12.81,0,0,1,5,.83,7.82,7.82,0,0,1,2.84,1.92,4.15,4.15,0,0,1,.76,2.27c.07.93.1,1.89.1,2.88Z" transform="translate(-0.1 -1.45)"/><path class="cls-2" d="M243.33,17.15a8.94,8.94,0,0,0-2.3-4.71,6,6,0,0,0-4.41-1.63,8,8,0,0,0-2.84.5,5.5,5.5,0,0,0-2.31,1.74,8.89,8.89,0,0,0-1.55,3.27,19.36,19.36,0,0,0-.56,5.11,17.68,17.68,0,0,0,.39,3.73A9.82,9.82,0,0,0,231,28.34a6.67,6.67,0,0,0,2.24,2.21,6.4,6.4,0,0,0,3.35.83,7.78,7.78,0,0,0,4.23-1.23A8.79,8.79,0,0,0,244,26.56l1.16.91a10.64,10.64,0,0,1-3.8,4.11,11.16,11.16,0,0,1-5.72,1.31A11.71,11.71,0,0,1,231,32a9.86,9.86,0,0,1-3.42-2.43A10.62,10.62,0,0,1,225.46,26a13.56,13.56,0,0,1-.73-4.52,13.51,13.51,0,0,1,.83-4.77,12,12,0,0,1,2.28-3.85,10.7,10.7,0,0,1,3.45-2.58,10,10,0,0,1,4.34-.94,12.58,12.58,0,0,1,5,.83,7.75,7.75,0,0,1,2.82,1.9,4.23,4.23,0,0,1,.76,2.26c.07.92.1,1.88.1,2.87Z" transform="translate(-0.1 -1.45)"/><path class="cls-2" d="M57.37,15.48,49.7,32.84H48L58.24,9.36h1.57l7.8,19a7.31,7.31,0,0,0,1.54,2.49,3.45,3.45,0,0,0,2.09,1.07v.89a5,5,0,0,1-.78.12,7.79,7.79,0,0,1-.89.06,11.77,11.77,0,0,1-1.8-.16,6.44,6.44,0,0,1-1.88-.64,6.19,6.19,0,0,1-1.74-1.39,8.37,8.37,0,0,1-1.45-2.44Z" transform="translate(-0.1 -1.45)"/><path class="cls-2" d="M136,9.37h4.56v19a6.34,6.34,0,0,0,.44,2.6c.29.65,1,1,2,1h.35V33h-4.2a4.76,4.76,0,0,1-1.53-.22,1.92,1.92,0,0,1-1-.75,3.63,3.63,0,0,1-.51-1.43,15.54,15.54,0,0,1-.14-2.26V21.53h-9.45V33H122V14a6.47,6.47,0,0,0-.43-2.59,2,2,0,0,0-2-1h-.35V9.37h4.2a4.48,4.48,0,0,1,1.53.23,2.13,2.13,0,0,1,1,.77,3.69,3.69,0,0,1,.51,1.43,15.24,15.24,0,0,1,.14,2.22v5.9H136Z" transform="translate(-0.1 -1.45)"/><path class="cls-2" d="M173.81,23.57a10.85,10.85,0,0,0,1.41,5.85,4.62,4.62,0,0,0,4.15,2.12c2.39,0,4.12-.72,5.21-2.18s1.62-3.74,1.62-6.86V9.19H188V22.5a18.51,18.51,0,0,1-.49,4.5,8.48,8.48,0,0,1-1.59,3.35A6.88,6.88,0,0,1,183,32.44a11.71,11.71,0,0,1-4.33.71q-9.45,0-9.45-10.65V13.84a6.49,6.49,0,0,0-.44-2.59c-.29-.66-1-1-2-1V9.19h3.86a4.22,4.22,0,0,1,1.52.24,2,2,0,0,1,1,.77,3.29,3.29,0,0,1,.51,1.43,15,15,0,0,1,.14,2.21Z" transform="translate(-0.1 -1.45)"/><path class="cls-2" d="M154.32,15.45,146.61,32.9h-1.75L155.19,9.3h1.58l7.84,19.1a7.63,7.63,0,0,0,1.55,2.5,3.39,3.39,0,0,0,2.1,1.07v.9a6.45,6.45,0,0,1-.79.12,7.79,7.79,0,0,1-.89.06,11.89,11.89,0,0,1-1.81-.16,6.53,6.53,0,0,1-1.89-.65,6.19,6.19,0,0,1-1.75-1.39,8.44,8.44,0,0,1-1.45-2.45Z" transform="translate(-0.1 -1.45)"/><path class="cls-2" d="M210.63,9.37l-13.73,22h13.56V33H191.37V31.83L204.4,11h-7.6a4.31,4.31,0,0,0-3,1,4.35,4.35,0,0,0-1.08,3.36h-1.05v-3a4.63,4.63,0,0,1,.12-1.05,2.11,2.11,0,0,1,.45-.91,2.46,2.46,0,0,1,.92-.65,3.87,3.87,0,0,1,1.48-.25Z" transform="translate(-0.1 -1.45)"/><path class="cls-2" d="M217.05,30.8a2,2,0,0,1,2-2.09,2.1,2.1,0,0,1,0,4.19A2,2,0,0,1,217.05,30.8Z" transform="translate(-0.1 -1.45)"/><path class="cls-2" d="M247.85,21.08a11.1,11.1,0,0,1,3.49-8.31A11.91,11.91,0,0,1,260,9.4a11.2,11.2,0,0,1,4.32.83A11.74,11.74,0,0,1,268,12.7a12.88,12.88,0,0,1,2.64,3.86,10.5,10.5,0,0,1,.94,4.27,11.59,11.59,0,0,1-.91,4.52A12.1,12.1,0,0,1,268,29.26a10.67,10.67,0,0,1-8.24,3.52,11.77,11.77,0,0,1-8.57-3.3A11.26,11.26,0,0,1,247.85,21.08Zm4.8.07q0,5.07,1.81,7.83a5.76,5.76,0,0,0,5.1,2.75A6,6,0,0,0,264.89,29c1.21-1.83,1.82-4.51,1.82-8.06q0-5-1.88-7.8a6,6,0,0,0-5.27-2.78,5.75,5.75,0,0,0-5,2.94A14.37,14.37,0,0,0,252.65,21.15Z" transform="translate(-0.1 -1.45)"/><path class="cls-2" d="M299.91,32.09a2.16,2.16,0,0,1-.54-.2,1.73,1.73,0,0,1-.85-.92,5.65,5.65,0,0,1-.24-2V9.29h-2.8a.63.63,0,0,0-.57.38c-1.13,2.58-7.54,17.78-7.54,17.78s-5.08-12.19-7-16.59a2.54,2.54,0,0,0-2.33-1.57h-3.56v.76a3.52,3.52,0,0,1,1,.44,1.92,1.92,0,0,1,.64.83V26.79h0v6.1h1.69V13.82l7.68,18.63a1.2,1.2,0,0,0,.21.31.28.28,0,0,0,.22.12c.06,0,.13-.05.23-.17a2.22,2.22,0,0,0,.25-.44l8.26-19.75v15.6l0,1.67a6,6,0,0,0,.23,2,1.79,1.79,0,0,0,.86.92,2.16,2.16,0,0,0,.54.2H300v-.78Z" transform="translate(-0.1 -1.45)"/><path class="cls-2" d="M111.18,40.53h1.08v2.14h1.85V40.53h1.07v5.66h-1.07V43.71h-1.85v2.48h-1.08Z" transform="translate(-0.1 -1.45)"/><path class="cls-2" d="M123.7,40.38a2.75,2.75,0,0,1,2,.88,2.94,2.94,0,0,1,.85,2.12,2.88,2.88,0,0,1-.84,2.1,2.74,2.74,0,0,1-2,.86,2.78,2.78,0,0,1-2.08-.88,3,3,0,0,1-.82-2.1,3.1,3.1,0,0,1,.38-1.5,3,3,0,0,1,1.06-1.08A2.85,2.85,0,0,1,123.7,40.38Zm0,1.06a1.7,1.7,0,0,0-1.29.55,1.93,1.93,0,0,0-.53,1.39,1.84,1.84,0,0,0,.66,1.49,1.81,1.81,0,0,0,1.18.42,1.7,1.7,0,0,0,1.28-.55A2,2,0,0,0,125,42,1.75,1.75,0,0,0,123.69,41.44Z" transform="translate(-0.1 -1.45)"/><path class="cls-2" d="M132.17,40.53h1.06v3.66a2,2,0,0,0,.08.67.76.76,0,0,0,.27.32.94.94,0,0,0,.45.11.82.82,0,0,0,.48-.13.64.64,0,0,0,.28-.33,2.56,2.56,0,0,0,.08-.77V40.53h1.06v3.38a5.16,5.16,0,0,1-.09,1.18,1.87,1.87,0,0,1-.36.64,1.7,1.7,0,0,1-.62.46,2,2,0,0,1-.8.15,1.93,1.93,0,0,1-1.06-.29,1.56,1.56,0,0,1-.63-.7,3.79,3.79,0,0,1-.2-1.44Z" transform="translate(-0.1 -1.45)"/><path class="cls-2" d="M144.71,41.3l-.78.7a1.12,1.12,0,0,0-.84-.58.51.51,0,0,0-.34.11.34.34,0,0,0-.14.26.43.43,0,0,0,.1.27,7.57,7.57,0,0,0,.77.73c.41.34.65.56.74.65a2.32,2.32,0,0,1,.45.63,1.59,1.59,0,0,1,.14.66,1.5,1.5,0,0,1-.48,1.15,1.66,1.66,0,0,1-1.23.46,1.78,1.78,0,0,1-1-.3,2.31,2.31,0,0,1-.75-.93l.88-.55q.41.75.93.75a.64.64,0,0,0,.45-.16.47.47,0,0,0,.19-.37.69.69,0,0,0-.14-.39,4.06,4.06,0,0,0-.62-.59,6.56,6.56,0,0,1-1.17-1.16,1.49,1.49,0,0,1-.26-.82,1.33,1.33,0,0,1,.44-1,1.5,1.5,0,0,1,1.08-.43,1.68,1.68,0,0,1,.79.2A2.84,2.84,0,0,1,144.71,41.3Z" transform="translate(-0.1 -1.45)"/><path class="cls-2" d="M150.45,40.53h3v1h-2v1h2v1h-2v1.5h2v1h-3Z" transform="translate(-0.1 -1.45)"/><path class="cls-2" d="M168.53,40.38a2.73,2.73,0,0,1,2,.88,3.06,3.06,0,0,1,0,4.22,2.85,2.85,0,0,1-4.1,0,3.07,3.07,0,0,1-.44-3.6,2.89,2.89,0,0,1,1.06-1.08A2.82,2.82,0,0,1,168.53,40.38Zm0,1.06a1.71,1.71,0,0,0-1.3.55,1.92,1.92,0,0,0-.52,1.39,1.84,1.84,0,0,0,.66,1.49,1.79,1.79,0,0,0,1.17.42,1.72,1.72,0,0,0,1.29-.55,1.92,1.92,0,0,0,.52-1.37,1.89,1.89,0,0,0-.53-1.37A1.73,1.73,0,0,0,168.52,41.44Z" transform="translate(-0.1 -1.45)"/><path class="cls-2" d="M177.05,40.53h2.75v1h-1.7v1h1.7v1h-1.7v2.55h-1Z" transform="translate(-0.1 -1.45)"/><path class="cls-2" d="M192.18,40.53h1.07v2.14h1.85V40.53h1.07v5.66H195.1V43.71h-1.85v2.48h-1.07Z" transform="translate(-0.1 -1.45)"/><path class="cls-2" d="M204.7,40.38a2.73,2.73,0,0,1,2,.88,3.06,3.06,0,0,1,0,4.22,2.85,2.85,0,0,1-4.1,0,2.94,2.94,0,0,1-.83-2.1,3.1,3.1,0,0,1,.38-1.5,3,3,0,0,1,1.06-1.08A2.89,2.89,0,0,1,204.7,40.38Zm0,1.06a1.7,1.7,0,0,0-1.29.55,1.93,1.93,0,0,0-.53,1.39,1.83,1.83,0,0,0,1.84,1.91,1.7,1.7,0,0,0,1.28-.55,1.89,1.89,0,0,0,.53-1.37A1.93,1.93,0,0,0,206,42,1.75,1.75,0,0,0,204.68,41.44Z" transform="translate(-0.1 -1.45)"/><path class="cls-2" d="M213.74,40.53h1l1.29,3.95,1.3-3.95h1l.94,5.66h-1l-.59-3.57-1.18,3.57h-.93l-1.17-3.57-.61,3.57h-1Z" transform="translate(-0.1 -1.45)"/><path class="cls-2" d="M224.8,40.53h3v1h-2v1h2v1h-2v1.5h2v1h-3Z" transform="translate(-0.1 -1.45)"/><path class="cls-2" d="M236.36,41.3l-.78.7a1.09,1.09,0,0,0-.84-.58.53.53,0,0,0-.34.11.33.33,0,0,0-.13.26.48.48,0,0,0,.09.27,9.82,9.82,0,0,0,.78.73c.4.34.65.56.73.65a2.18,2.18,0,0,1,.46.63,1.59,1.59,0,0,1,.13.66,1.53,1.53,0,0,1-.47,1.15,1.69,1.69,0,0,1-1.23.46,1.82,1.82,0,0,1-1-.3,2.4,2.4,0,0,1-.75-.93l.89-.55c.27.5.57.75.92.75a.66.66,0,0,0,.46-.16.49.49,0,0,0,.18-.37.62.62,0,0,0-.14-.39,3.84,3.84,0,0,0-.61-.59,5.92,5.92,0,0,1-1.17-1.16,1.51,1.51,0,0,1-.27-.82,1.36,1.36,0,0,1,.44-1,1.54,1.54,0,0,1,1.09-.43,1.72,1.72,0,0,1,.79.2A2.82,2.82,0,0,1,236.36,41.3Z" transform="translate(-0.1 -1.45)"/><path class="cls-3" d="M27.28,30.16A7.5,7.5,0,0,1,26,28a7.29,7.29,0,0,1-.28-.94,7.84,7.84,0,0,1,.94.29,7.7,7.7,0,0,1,2.19,1.27A5.6,5.6,0,0,1,31,32.28a5.63,5.63,0,0,1-3.68-2.12m9.37-6.07a5.41,5.41,0,0,0-1-1.47,5.35,5.35,0,0,0-1.81-1.18,5.07,5.07,0,0,0,1.81-1.18,5.21,5.21,0,0,0,1-1.46l2.65,2.64Zm-.31,1.17a4.92,4.92,0,0,1,.12,1v3.28a6.73,6.73,0,0,1-3,.48,5.9,5.9,0,0,1-3-1.05,5.26,5.26,0,0,1-1.85-2.22,4.16,4.16,0,0,1-.35-2,.35.35,0,0,0-.69-.05A4.86,4.86,0,0,0,28,27.05c0,.06,0,.13.08.19a7.59,7.59,0,0,0-1.19-.56,7.27,7.27,0,0,0-1.31-.37,6.79,6.79,0,0,1,0-.78,5,5,0,0,1,1.69-3.74h2a4.75,4.75,0,0,0,.34,1.42,4.48,4.48,0,0,0,1,1.48l0,0A4.58,4.58,0,0,0,33.78,26a4.65,4.65,0,0,0,2.56-.77m-.23-6.94a4.37,4.37,0,0,1-1,1.46A4.49,4.49,0,0,1,32,21.1H27.24a5,5,0,0,1-1.69-3.74,6.79,6.79,0,0,1,0-.78,7.27,7.27,0,0,0,1.31-.37,7.59,7.59,0,0,0,1.19-.56c0,.08-.07.17-.11.25a5,5,0,0,0-.38,2.26.35.35,0,0,0,.69-.05,4.27,4.27,0,0,1,.32-1.94,5.16,5.16,0,0,1,1.21-1.74A5.89,5.89,0,0,1,33,12.89a6.66,6.66,0,0,1,3.46.43V16.6a4.92,4.92,0,0,1-.12,1,4.65,4.65,0,0,0-2.56-.77,4.59,4.59,0,0,0-3.25,1.34,4.09,4.09,0,0,0-.7.91,4.54,4.54,0,0,0-.46,1.06.34.34,0,0,0,.24.42.34.34,0,0,0,.42-.23,3.61,3.61,0,0,1,.39-.9,3.69,3.69,0,0,1,.6-.78,3.91,3.91,0,0,1,2.76-1.13,3.85,3.85,0,0,1,2.33.77M32,34.63a1,1,0,0,1-.28-.68V33h1a1,1,0,0,1,.68.28,1,1,0,0,1,.28.68,1,1,0,0,1-1.65.68m-8,3a4.62,4.62,0,0,0-.56-5.8,4.33,4.33,0,0,0-.76-.61,4.44,4.44,0,0,0-.87-.44l-.24-.08-.24-.07a.35.35,0,0,0-.42.25.34.34,0,0,0,.25.41l.21.06.2.07a4.65,4.65,0,0,1,.74.37,4.42,4.42,0,0,1,.64.52,3.92,3.92,0,0,1,.37,5.1,4.56,4.56,0,0,1-1.47-1,4.52,4.52,0,0,1-1.32-3.18V28.55a4.94,4.94,0,0,1,3.74-1.68,6.79,6.79,0,0,1,.78,0,8.83,8.83,0,0,0,.37,1.31,10,10,0,0,0,.56,1.19l-.18-.09a5,5,0,0,0-2.33-.4.33.33,0,0,0-.31.36.34.34,0,0,0,.36.32,4.28,4.28,0,0,1,2,.35A5.18,5.18,0,0,1,27,31l0,.05a5.25,5.25,0,0,1,.64.76,5.93,5.93,0,0,1,1,3,6.84,6.84,0,0,1-.49,3H25a4.4,4.4,0,0,1-1-.12m-3.81,3L17.48,38a5.19,5.19,0,0,0,2.65-2.85,5.15,5.15,0,0,0,1.18,1.82,5.26,5.26,0,0,0,1.47,1Zm-.34-10.1a4.9,4.9,0,0,0-1.42.33,4.71,4.71,0,0,0-1.49,1l0,0a4.59,4.59,0,0,0-.54,5.78,4.4,4.4,0,0,1-1,.12H12a6.84,6.84,0,0,1-.49-3,5.93,5.93,0,0,1,1.05-3A5.35,5.35,0,0,1,14.79,30a4.35,4.35,0,0,1,2-.35.34.34,0,0,0,.36-.32.34.34,0,0,0-.32-.36,5,5,0,0,0-2.32.4l-.19.09a8.66,8.66,0,0,0,.57-1.19,7.73,7.73,0,0,0,.36-1.31,7.09,7.09,0,0,1,.79,0,4.94,4.94,0,0,1,3.74,1.68Zm0,.69v2.06a4.48,4.48,0,0,1-1.33,3.18,4.42,4.42,0,0,1-1.46,1,3.93,3.93,0,0,1-.77-2.34,3.88,3.88,0,0,1,1.12-2.74l0,0a3.88,3.88,0,0,1,2.42-1.12M11.41,14.29a7.5,7.5,0,0,0,2.19,1.28,6.33,6.33,0,0,0,.94.28,6.76,6.76,0,0,0-.29-.94A7.74,7.74,0,0,0,13,12.72a5.68,5.68,0,0,0-3.69-2.11,5.61,5.61,0,0,0,2.12,3.68m6.07-9.37a5.19,5.19,0,0,1,2.65,2.85A5.15,5.15,0,0,1,21.31,6a5.26,5.26,0,0,1,1.47-1L20.13,2.27Zm-1.16.32a4.4,4.4,0,0,0-1-.12H12a6.7,6.7,0,0,0-.49,3,6,6,0,0,0,1.05,3,5.35,5.35,0,0,0,2.22,1.86,4.35,4.35,0,0,0,2,.35.34.34,0,0,1,.36.31.34.34,0,0,1-.32.37,4.86,4.86,0,0,1-2.32-.41l-.19-.08a8.66,8.66,0,0,1,.57,1.19A7.73,7.73,0,0,1,15.26,16a7.09,7.09,0,0,0,.79,0,5,5,0,0,0,3.74-1.68v-2A4.61,4.61,0,0,1,18.37,12a4.51,4.51,0,0,1-1.49-1l0,0a4.59,4.59,0,0,1-.54-5.78m6.94.22a4.56,4.56,0,0,0-1.47,1,4.5,4.5,0,0,0-1.32,3.18v4.72A4.94,4.94,0,0,0,24.21,16,6.79,6.79,0,0,0,25,16a8.83,8.83,0,0,1,.37-1.31,10,10,0,0,1,.56-1.19l-.25.11a4.84,4.84,0,0,1-2.26.38.34.34,0,0,1,.05-.68A4.21,4.21,0,0,0,25.41,13a5.26,5.26,0,0,0,1.74-1.21,5.84,5.84,0,0,0,1.53-3.18,6.64,6.64,0,0,0-.43-3.45H25a4.4,4.4,0,0,0-1,.12,4.61,4.61,0,0,1-.57,5.8,4.46,4.46,0,0,1-.91.71,4.62,4.62,0,0,1-1.05.45A.35.35,0,0,1,21,12a.36.36,0,0,1,.24-.43,3.91,3.91,0,0,0,2-6.08M6.94,9.62a1,1,0,0,0,.68.28h1v-1a1,1,0,0,0-1-1,.94.94,0,0,0-.68.29.92.92,0,0,0-.28.68,1,1,0,0,0,.28.68m-3,8a4.65,4.65,0,0,1,2.56-.77A4.6,4.6,0,0,1,9.73,18.2a5.41,5.41,0,0,1,.61.75,5,5,0,0,1,.43.87,1.35,1.35,0,0,1,.08.24,2.17,2.17,0,0,1,.07.24.34.34,0,0,1-.24.42.35.35,0,0,1-.42-.25l-.06-.2-.07-.21a3.58,3.58,0,0,0-.37-.73,4,4,0,0,0-.52-.65,3.94,3.94,0,0,0-5.1-.36,4.69,4.69,0,0,0,1,1.46A4.52,4.52,0,0,0,8.3,21.1H13a5,5,0,0,0,1.69-3.74,6.81,6.81,0,0,0-.05-.78,7.4,7.4,0,0,1-1.3-.37,8.14,8.14,0,0,1-1.2-.56l.09.19a5.11,5.11,0,0,1,.41,2.32.35.35,0,0,1-.69-.05,4.28,4.28,0,0,0-.35-2,5,5,0,0,0-1-1.54l0-.05a5.78,5.78,0,0,0-.76-.63,5.9,5.9,0,0,0-3-1.05,6.7,6.7,0,0,0-3,.48V16.6a4.34,4.34,0,0,0,.12,1M8.59,33h-1a1,1,0,0,0-.68.28.94.94,0,0,0-.28.68.92.92,0,0,0,.28.68h0a1,1,0,0,0,.68.29,1,1,0,0,0,1-1V33Zm5.95-6h0a7.84,7.84,0,0,0-.94.29,7.7,7.7,0,0,0-2.19,1.27,5.65,5.65,0,0,0-2.12,3.69A5.65,5.65,0,0,0,13,30.16,7.47,7.47,0,0,0,14.25,28a6,6,0,0,0,.29-.94ZM24.9,16.68h0a5.3,5.3,0,0,1-.69,0A5.56,5.56,0,0,1,20.13,15a5.57,5.57,0,0,1-4.07,1.73,5.4,5.4,0,0,1-.7,0q0,.34,0,.69a5.58,5.58,0,0,1-1.73,4.07,5.62,5.62,0,0,1,1.73,4.08q0,.35,0,.69h0c.23,0,.46,0,.7,0a5.58,5.58,0,0,1,4.07,1.74,5.57,5.57,0,0,1,4.07-1.74q.35,0,.69,0c0-.23,0-.46,0-.69a5.62,5.62,0,0,1,1.73-4.08,5.58,5.58,0,0,1-1.73-4.07c0-.23,0-.46,0-.69ZM31,10.61h0a5.66,5.66,0,0,0-3.68,2.11A7.77,7.77,0,0,0,26,14.91a8.37,8.37,0,0,0-.28.94h0a6.33,6.33,0,0,0,.94-.28,7.5,7.5,0,0,0,2.19-1.28A5.55,5.55,0,0,0,31,10.61Zm2.35-2.35h0a1,1,0,0,0-1.65.68v1h1a1,1,0,0,0,1-1,1,1,0,0,0-.28-.68Zm-30,16.53a.94.94,0,0,1-.1-.1l-3-3a.36.36,0,0,1,0-.49l3-3a.94.94,0,0,1,.1-.1,5,5,0,0,1-.23-1.5V13.1a.34.34,0,0,1,.24-.33,7.53,7.53,0,0,1,3.48-.62,6.84,6.84,0,0,1,2.46.66,5.64,5.64,0,0,1-.69-2.22h-1A1.66,1.66,0,0,1,6,8.94H6A1.65,1.65,0,0,1,8.79,7.77a1.64,1.64,0,0,1,.48,1.17v1a5.62,5.62,0,0,1,2.23.68,6.45,6.45,0,0,1-.66-2.45,7.47,7.47,0,0,1,.61-3.48.35.35,0,0,1,.33-.24h3.51a5.21,5.21,0,0,1,1.49.22l.1-.1,3-3h.48l3,3,.1.1A5.34,5.34,0,0,1,25,4.43h3.51a.33.33,0,0,1,.32.24,7.29,7.29,0,0,1,.56,4,6.64,6.64,0,0,1-.6,1.94A5.48,5.48,0,0,1,31,9.92v-1a1.65,1.65,0,0,1,.49-1.17,1.68,1.68,0,0,1,1.16-.49,1.65,1.65,0,0,1,1.17.49h0a1.65,1.65,0,0,1,.49,1.17,1.66,1.66,0,0,1-1.65,1.65h-1A5.47,5.47,0,0,1,31,12.81a6.79,6.79,0,0,1,1.93-.6,7.41,7.41,0,0,1,4,.56.34.34,0,0,1,.23.33v3.5a5,5,0,0,1-.22,1.5.94.94,0,0,1,.1.1l3,3h0l-3,3a.94.94,0,0,1-.1.1,5,5,0,0,1,.22,1.5v3.5a.35.35,0,0,1-.23.33,7.51,7.51,0,0,1-3.48.61A6.63,6.63,0,0,1,31,30.08a5.47,5.47,0,0,1,.68,2.22h1a1.63,1.63,0,0,1,1.16.48A1.67,1.67,0,0,1,34.29,34a1.66,1.66,0,0,1-1.65,1.65h0A1.66,1.66,0,0,1,31,34V33a5.48,5.48,0,0,1-2.22-.69,6.64,6.64,0,0,1,.66,2.46,7.36,7.36,0,0,1-.62,3.48.33.33,0,0,1-.32.24H25a5.34,5.34,0,0,1-1.5-.22l-.1.1-3,3a.34.34,0,0,1-.48,0l-3-3-.1-.1a5.21,5.21,0,0,1-1.49.22H11.78a.35.35,0,0,1-.33-.24,7.47,7.47,0,0,1-.61-3.48,6.64,6.64,0,0,1,.66-2.46A5.48,5.48,0,0,1,9.27,33v1A1.64,1.64,0,0,1,7.62,35.6a1.66,1.66,0,0,1-1.17-.48h0a1.67,1.67,0,0,1,0-2.34,1.66,1.66,0,0,1,1.17-.48h1a5.59,5.59,0,0,1,.69-2.22,6.63,6.63,0,0,1-2.46.65,7.51,7.51,0,0,1-3.48-.61.35.35,0,0,1-.24-.33v-3.5a5,5,0,0,1,.23-1.5M1,21.44l2.65,2.65a5,5,0,0,1,1-1.47,5.25,5.25,0,0,1,1.81-1.18,5,5,0,0,1-1.81-1.18,4.83,4.83,0,0,1-1-1.46Zm10.09.35a4.33,4.33,0,0,1-.33,1.41,4.73,4.73,0,0,1-1,1.49l0,0a4.59,4.59,0,0,1-5.78.54,4.48,4.48,0,0,0-.12,1v3.27a6.58,6.58,0,0,0,3,.49,5.9,5.9,0,0,0,3-1.05,5.26,5.26,0,0,0,1.85-2.22,4.28,4.28,0,0,0,.35-2,.35.35,0,0,1,.69-.05,5.11,5.11,0,0,1-.41,2.32l-.09.19a8.14,8.14,0,0,1,1.2-.56,7.4,7.4,0,0,1,1.3-.37,6.81,6.81,0,0,0,.05-.78A5,5,0,0,0,13,21.79Zm-.69,0H8.3a4.47,4.47,0,0,0-3.18,1.32,4.69,4.69,0,0,0-1,1.46,3.92,3.92,0,0,0,5.08-.35l0,0a3.71,3.71,0,0,0,.84-1.26,3.59,3.59,0,0,0,.28-1.15m9.43-10.11V9.62a4.47,4.47,0,0,0-1.33-3.18,4.42,4.42,0,0,0-1.46-1,3.93,3.93,0,0,0-.77,2.34,3.88,3.88,0,0,0,1.12,2.74l0,0a3.88,3.88,0,0,0,2.42,1.12m10.1,10.11H32a4.45,4.45,0,0,1,3.17,1.32,4.37,4.37,0,0,1,1,1.46A3.92,3.92,0,0,1,31,24.23l0,0a3.88,3.88,0,0,1-.85-1.27,4.2,4.2,0,0,1-.28-1.15" transform="translate(-0.1 -1.45)"/><g class="cls-4"><rect class="cls-5" width="40.03" height="40.03"/></g><rect class="cls-2" x="16.96" y="20.21" width="2.79" height="2.79"/><rect class="cls-2" x="20.45" y="20.21" width="2.79" height="2.79"/><path class="cls-2" d="M19.85,21H17.06a2.79,2.79,0,0,1,2.79-2.79h0Z" transform="translate(-0.1 -1.45)"/><path class="cls-2" d="M23.34,21H20.55V18.17h0A2.79,2.79,0,0,1,23.34,21Z" transform="translate(-0.1 -1.45)"/></svg>